<mxfile host="app.diagrams.net" modified="2022-05-27T13:19:39.212Z" agent="5.0 (Windows NT 10.0; Win64; x64) AppleWebKit/537.36 (KHTML, like Gecko) Chrome/101.0.4951.64 Safari/537.36 Edg/101.0.1210.53" etag="17e3-V9MjMH_ZIaps3hv" version="18.1.3" type="github">
  <diagram id="LmrDR_5DjWMxxekCSNVJ" name="Page-1">
    <mxGraphModel dx="1038" dy="579" grid="1" gridSize="10" guides="1" tooltips="1" connect="1" arrows="1" fold="1" page="1" pageScale="1" pageWidth="827" pageHeight="1169" math="0" shadow="0">
      <root>
        <mxCell id="0" />
        <mxCell id="1" parent="0" />
        <mxCell id="2z21b3cvbouEXiCNSWIQ-1" value="" style="ellipse;whiteSpace=wrap;html=1;aspect=fixed;fillColor=#CCCCCC;" vertex="1" parent="1">
          <mxGeometry x="120" y="520" width="40" height="40" as="geometry" />
        </mxCell>
        <mxCell id="2z21b3cvbouEXiCNSWIQ-2" style="edgeStyle=orthogonalEdgeStyle;rounded=0;orthogonalLoop=1;jettySize=auto;html=1;exitX=1;exitY=0.5;exitDx=0;exitDy=0;entryX=0;entryY=0.5;entryDx=0;entryDy=0;fontSize=24;endArrow=none;endFill=0;" edge="1" parent="1" source="2z21b3cvbouEXiCNSWIQ-3" target="2z21b3cvbouEXiCNSWIQ-42">
          <mxGeometry relative="1" as="geometry" />
        </mxCell>
        <mxCell id="2z21b3cvbouEXiCNSWIQ-3" value="" style="ellipse;whiteSpace=wrap;html=1;aspect=fixed;fillColor=#CCCCCC;" vertex="1" parent="1">
          <mxGeometry x="320" y="160" width="40" height="40" as="geometry" />
        </mxCell>
        <mxCell id="2z21b3cvbouEXiCNSWIQ-4" style="edgeStyle=orthogonalEdgeStyle;rounded=0;orthogonalLoop=1;jettySize=auto;html=1;exitX=0.5;exitY=0;exitDx=0;exitDy=0;entryX=0.5;entryY=1;entryDx=0;entryDy=0;fontSize=24;endArrow=none;endFill=0;strokeWidth=5;strokeColor=#FF6666;" edge="1" parent="1" source="2z21b3cvbouEXiCNSWIQ-6" target="2z21b3cvbouEXiCNSWIQ-3">
          <mxGeometry relative="1" as="geometry" />
        </mxCell>
        <mxCell id="2z21b3cvbouEXiCNSWIQ-6" value="" style="ellipse;whiteSpace=wrap;html=1;aspect=fixed;fillColor=#CCCCCC;" vertex="1" parent="1">
          <mxGeometry x="320" y="240" width="40" height="40" as="geometry" />
        </mxCell>
        <mxCell id="2z21b3cvbouEXiCNSWIQ-7" style="edgeStyle=orthogonalEdgeStyle;rounded=0;orthogonalLoop=1;jettySize=auto;html=1;exitX=1;exitY=0.5;exitDx=0;exitDy=0;entryX=0;entryY=0.5;entryDx=0;entryDy=0;fontSize=24;endArrow=none;endFill=0;" edge="1" parent="1" source="2z21b3cvbouEXiCNSWIQ-10" target="2z21b3cvbouEXiCNSWIQ-6">
          <mxGeometry relative="1" as="geometry" />
        </mxCell>
        <mxCell id="2z21b3cvbouEXiCNSWIQ-8" style="edgeStyle=orthogonalEdgeStyle;rounded=0;orthogonalLoop=1;jettySize=auto;html=1;exitX=0.5;exitY=0;exitDx=0;exitDy=0;entryX=0.5;entryY=1;entryDx=0;entryDy=0;fontSize=24;endArrow=none;endFill=0;" edge="1" parent="1" source="2z21b3cvbouEXiCNSWIQ-10" target="2z21b3cvbouEXiCNSWIQ-13">
          <mxGeometry relative="1" as="geometry" />
        </mxCell>
        <mxCell id="2z21b3cvbouEXiCNSWIQ-62" style="edgeStyle=orthogonalEdgeStyle;rounded=0;orthogonalLoop=1;jettySize=auto;html=1;exitX=0.5;exitY=1;exitDx=0;exitDy=0;entryX=0.5;entryY=0;entryDx=0;entryDy=0;endArrow=none;endFill=0;" edge="1" parent="1" source="2z21b3cvbouEXiCNSWIQ-10" target="2z21b3cvbouEXiCNSWIQ-60">
          <mxGeometry relative="1" as="geometry" />
        </mxCell>
        <mxCell id="2z21b3cvbouEXiCNSWIQ-10" value="" style="ellipse;whiteSpace=wrap;html=1;aspect=fixed;" vertex="1" parent="1">
          <mxGeometry x="200" y="240" width="40" height="40" as="geometry" />
        </mxCell>
        <mxCell id="2z21b3cvbouEXiCNSWIQ-11" style="edgeStyle=orthogonalEdgeStyle;rounded=0;orthogonalLoop=1;jettySize=auto;html=1;exitX=1;exitY=0.5;exitDx=0;exitDy=0;entryX=0;entryY=0.5;entryDx=0;entryDy=0;fontSize=24;endArrow=none;endFill=0;strokeColor=#FF6666;strokeWidth=5;" edge="1" parent="1" source="2z21b3cvbouEXiCNSWIQ-13" target="2z21b3cvbouEXiCNSWIQ-3">
          <mxGeometry relative="1" as="geometry" />
        </mxCell>
        <mxCell id="2z21b3cvbouEXiCNSWIQ-12" style="edgeStyle=orthogonalEdgeStyle;rounded=0;orthogonalLoop=1;jettySize=auto;html=1;exitX=0;exitY=0.5;exitDx=0;exitDy=0;entryX=1;entryY=0.5;entryDx=0;entryDy=0;fontSize=24;endArrow=none;endFill=0;strokeWidth=5;strokeColor=#FF6666;" edge="1" parent="1" source="2z21b3cvbouEXiCNSWIQ-13" target="2z21b3cvbouEXiCNSWIQ-34">
          <mxGeometry relative="1" as="geometry" />
        </mxCell>
        <mxCell id="2z21b3cvbouEXiCNSWIQ-13" value="" style="ellipse;whiteSpace=wrap;html=1;aspect=fixed;fillColor=#CCCCCC;" vertex="1" parent="1">
          <mxGeometry x="200" y="160" width="40" height="40" as="geometry" />
        </mxCell>
        <mxCell id="2z21b3cvbouEXiCNSWIQ-14" style="edgeStyle=orthogonalEdgeStyle;rounded=0;orthogonalLoop=1;jettySize=auto;html=1;exitX=1;exitY=0.5;exitDx=0;exitDy=0;entryX=0;entryY=0.5;entryDx=0;entryDy=0;fontSize=24;endArrow=none;endFill=0;strokeWidth=5;strokeColor=#FF6666;" edge="1" parent="1" source="2z21b3cvbouEXiCNSWIQ-15" target="2z21b3cvbouEXiCNSWIQ-35">
          <mxGeometry relative="1" as="geometry" />
        </mxCell>
        <mxCell id="2z21b3cvbouEXiCNSWIQ-15" value="" style="ellipse;whiteSpace=wrap;html=1;aspect=fixed;fillColor=#CCCCCC;" vertex="1" parent="1">
          <mxGeometry x="200" y="600" width="40" height="40" as="geometry" />
        </mxCell>
        <mxCell id="2z21b3cvbouEXiCNSWIQ-16" value="&lt;font style=&quot;font-size: 24px;&quot;&gt;......&lt;/font&gt;" style="text;html=1;strokeColor=none;fillColor=none;align=center;verticalAlign=middle;whiteSpace=wrap;rounded=0;rotation=90;" vertex="1" parent="1">
          <mxGeometry x="195" y="480" width="50" height="30" as="geometry" />
        </mxCell>
        <mxCell id="2z21b3cvbouEXiCNSWIQ-17" style="edgeStyle=orthogonalEdgeStyle;rounded=0;orthogonalLoop=1;jettySize=auto;html=1;exitX=1;exitY=0.5;exitDx=0;exitDy=0;entryX=0;entryY=0.5;entryDx=0;entryDy=0;fontSize=24;endArrow=none;endFill=0;" edge="1" parent="1" source="2z21b3cvbouEXiCNSWIQ-20" target="2z21b3cvbouEXiCNSWIQ-27">
          <mxGeometry relative="1" as="geometry" />
        </mxCell>
        <mxCell id="2z21b3cvbouEXiCNSWIQ-18" style="edgeStyle=orthogonalEdgeStyle;rounded=0;orthogonalLoop=1;jettySize=auto;html=1;exitX=0.5;exitY=1;exitDx=0;exitDy=0;entryX=0.5;entryY=0;entryDx=0;entryDy=0;fontSize=24;endArrow=none;endFill=0;" edge="1" parent="1" source="2z21b3cvbouEXiCNSWIQ-20" target="2z21b3cvbouEXiCNSWIQ-15">
          <mxGeometry relative="1" as="geometry" />
        </mxCell>
        <mxCell id="2z21b3cvbouEXiCNSWIQ-19" style="edgeStyle=orthogonalEdgeStyle;rounded=0;orthogonalLoop=1;jettySize=auto;html=1;exitX=0;exitY=0.5;exitDx=0;exitDy=0;entryX=1;entryY=0.5;entryDx=0;entryDy=0;fontSize=24;endArrow=none;endFill=0;" edge="1" parent="1" source="2z21b3cvbouEXiCNSWIQ-20" target="2z21b3cvbouEXiCNSWIQ-1">
          <mxGeometry relative="1" as="geometry" />
        </mxCell>
        <mxCell id="2z21b3cvbouEXiCNSWIQ-20" value="" style="ellipse;whiteSpace=wrap;html=1;aspect=fixed;" vertex="1" parent="1">
          <mxGeometry x="200" y="520" width="40" height="40" as="geometry" />
        </mxCell>
        <mxCell id="2z21b3cvbouEXiCNSWIQ-21" value="a1" style="text;html=1;strokeColor=none;fillColor=none;align=center;verticalAlign=middle;whiteSpace=wrap;rounded=0;fontSize=18;" vertex="1" parent="1">
          <mxGeometry x="250" y="150" width="60" height="30" as="geometry" />
        </mxCell>
        <mxCell id="2z21b3cvbouEXiCNSWIQ-22" value="a2" style="text;html=1;strokeColor=none;fillColor=none;align=center;verticalAlign=middle;whiteSpace=wrap;rounded=0;fontSize=18;" vertex="1" parent="1">
          <mxGeometry x="250" y="230" width="60" height="30" as="geometry" />
        </mxCell>
        <mxCell id="2z21b3cvbouEXiCNSWIQ-23" value="a&lt;sub&gt;&lt;i&gt;m&lt;/i&gt;&lt;/sub&gt;" style="text;html=1;strokeColor=none;fillColor=none;align=center;verticalAlign=middle;whiteSpace=wrap;rounded=0;fontSize=18;" vertex="1" parent="1">
          <mxGeometry x="250" y="510" width="60" height="30" as="geometry" />
        </mxCell>
        <mxCell id="2z21b3cvbouEXiCNSWIQ-24" value="&lt;font style=&quot;font-size: 24px;&quot;&gt;G&lt;/font&gt;" style="text;html=1;strokeColor=none;fillColor=none;align=center;verticalAlign=middle;whiteSpace=wrap;rounded=0;fontSize=18;" vertex="1" parent="1">
          <mxGeometry x="130" y="90" width="40" height="30" as="geometry" />
        </mxCell>
        <mxCell id="2z21b3cvbouEXiCNSWIQ-25" style="edgeStyle=orthogonalEdgeStyle;rounded=0;orthogonalLoop=1;jettySize=auto;html=1;exitX=0.5;exitY=1;exitDx=0;exitDy=0;entryX=0.5;entryY=0;entryDx=0;entryDy=0;fontSize=24;endArrow=none;endFill=0;strokeWidth=5;strokeColor=#FF6666;" edge="1" parent="1" source="2z21b3cvbouEXiCNSWIQ-27" target="2z21b3cvbouEXiCNSWIQ-35">
          <mxGeometry relative="1" as="geometry" />
        </mxCell>
        <mxCell id="2z21b3cvbouEXiCNSWIQ-26" style="edgeStyle=orthogonalEdgeStyle;rounded=0;orthogonalLoop=1;jettySize=auto;html=1;exitX=1;exitY=0.5;exitDx=0;exitDy=0;entryX=0;entryY=0.5;entryDx=0;entryDy=0;fontSize=24;endArrow=none;endFill=0;" edge="1" parent="1" source="2z21b3cvbouEXiCNSWIQ-27" target="2z21b3cvbouEXiCNSWIQ-43">
          <mxGeometry relative="1" as="geometry" />
        </mxCell>
        <mxCell id="2z21b3cvbouEXiCNSWIQ-27" value="" style="ellipse;whiteSpace=wrap;html=1;aspect=fixed;fillColor=#CCCCCC;" vertex="1" parent="1">
          <mxGeometry x="320" y="520" width="40" height="40" as="geometry" />
        </mxCell>
        <mxCell id="2z21b3cvbouEXiCNSWIQ-28" value="&lt;font style=&quot;font-size: 24px;&quot;&gt;......&lt;/font&gt;" style="text;html=1;strokeColor=none;fillColor=none;align=center;verticalAlign=middle;whiteSpace=wrap;rounded=0;rotation=90;" vertex="1" parent="1">
          <mxGeometry x="315" y="480" width="50" height="30" as="geometry" />
        </mxCell>
        <mxCell id="2z21b3cvbouEXiCNSWIQ-29" value="0" style="text;html=1;strokeColor=none;fillColor=none;align=center;verticalAlign=middle;whiteSpace=wrap;rounded=0;fontSize=18;" vertex="1" parent="1">
          <mxGeometry x="195" y="205" width="20" height="30" as="geometry" />
        </mxCell>
        <mxCell id="2z21b3cvbouEXiCNSWIQ-30" value="0" style="text;html=1;strokeColor=none;fillColor=none;align=center;verticalAlign=middle;whiteSpace=wrap;rounded=0;fontSize=18;" vertex="1" parent="1">
          <mxGeometry x="315" y="205" width="20" height="30" as="geometry" />
        </mxCell>
        <mxCell id="2z21b3cvbouEXiCNSWIQ-31" value="0" style="text;html=1;strokeColor=none;fillColor=none;align=center;verticalAlign=middle;whiteSpace=wrap;rounded=0;fontSize=18;" vertex="1" parent="1">
          <mxGeometry x="195" y="280" width="20" height="30" as="geometry" />
        </mxCell>
        <mxCell id="2z21b3cvbouEXiCNSWIQ-32" value="0" style="text;html=1;strokeColor=none;fillColor=none;align=center;verticalAlign=middle;whiteSpace=wrap;rounded=0;fontSize=18;" vertex="1" parent="1">
          <mxGeometry x="315" y="280" width="20" height="30" as="geometry" />
        </mxCell>
        <mxCell id="2z21b3cvbouEXiCNSWIQ-33" style="edgeStyle=orthogonalEdgeStyle;rounded=0;orthogonalLoop=1;jettySize=auto;html=1;exitX=0.5;exitY=1;exitDx=0;exitDy=0;entryX=0.5;entryY=0;entryDx=0;entryDy=0;fontSize=24;endArrow=none;endFill=0;strokeWidth=5;strokeColor=#FF6666;" edge="1" parent="1" source="2z21b3cvbouEXiCNSWIQ-34" target="2z21b3cvbouEXiCNSWIQ-1">
          <mxGeometry relative="1" as="geometry" />
        </mxCell>
        <mxCell id="2z21b3cvbouEXiCNSWIQ-34" value="" style="ellipse;whiteSpace=wrap;html=1;aspect=fixed;fillColor=#CCCCCC;" vertex="1" parent="1">
          <mxGeometry x="120" y="160" width="40" height="40" as="geometry" />
        </mxCell>
        <mxCell id="2z21b3cvbouEXiCNSWIQ-35" value="" style="ellipse;whiteSpace=wrap;html=1;aspect=fixed;fillColor=#CCCCCC;" vertex="1" parent="1">
          <mxGeometry x="320" y="600" width="40" height="40" as="geometry" />
        </mxCell>
        <mxCell id="2z21b3cvbouEXiCNSWIQ-36" style="edgeStyle=orthogonalEdgeStyle;rounded=0;orthogonalLoop=1;jettySize=auto;html=1;exitX=1;exitY=0.5;exitDx=0;exitDy=0;entryX=0;entryY=0.5;entryDx=0;entryDy=0;fontSize=24;endArrow=none;endFill=0;" edge="1" parent="1" source="2z21b3cvbouEXiCNSWIQ-38" target="2z21b3cvbouEXiCNSWIQ-40">
          <mxGeometry relative="1" as="geometry" />
        </mxCell>
        <mxCell id="2z21b3cvbouEXiCNSWIQ-37" style="edgeStyle=orthogonalEdgeStyle;rounded=0;orthogonalLoop=1;jettySize=auto;html=1;exitX=0.5;exitY=1;exitDx=0;exitDy=0;entryX=0.5;entryY=0;entryDx=0;entryDy=0;fontSize=24;endArrow=none;endFill=0;" edge="1" parent="1" source="2z21b3cvbouEXiCNSWIQ-38" target="2z21b3cvbouEXiCNSWIQ-13">
          <mxGeometry relative="1" as="geometry" />
        </mxCell>
        <mxCell id="2z21b3cvbouEXiCNSWIQ-38" value="" style="ellipse;whiteSpace=wrap;html=1;aspect=fixed;" vertex="1" parent="1">
          <mxGeometry x="200" y="80" width="40" height="40" as="geometry" />
        </mxCell>
        <mxCell id="2z21b3cvbouEXiCNSWIQ-39" style="edgeStyle=orthogonalEdgeStyle;rounded=0;orthogonalLoop=1;jettySize=auto;html=1;exitX=0.5;exitY=1;exitDx=0;exitDy=0;entryX=0.5;entryY=0;entryDx=0;entryDy=0;fontSize=24;endArrow=none;endFill=0;" edge="1" parent="1" source="2z21b3cvbouEXiCNSWIQ-40" target="2z21b3cvbouEXiCNSWIQ-3">
          <mxGeometry relative="1" as="geometry" />
        </mxCell>
        <mxCell id="2z21b3cvbouEXiCNSWIQ-40" value="" style="ellipse;whiteSpace=wrap;html=1;aspect=fixed;" vertex="1" parent="1">
          <mxGeometry x="320" y="80" width="40" height="40" as="geometry" />
        </mxCell>
        <mxCell id="2z21b3cvbouEXiCNSWIQ-41" style="edgeStyle=orthogonalEdgeStyle;rounded=0;orthogonalLoop=1;jettySize=auto;html=1;exitX=0.5;exitY=1;exitDx=0;exitDy=0;entryX=0.5;entryY=0;entryDx=0;entryDy=0;fontSize=24;endArrow=none;endFill=0;" edge="1" parent="1" source="2z21b3cvbouEXiCNSWIQ-42" target="2z21b3cvbouEXiCNSWIQ-43">
          <mxGeometry relative="1" as="geometry" />
        </mxCell>
        <mxCell id="2z21b3cvbouEXiCNSWIQ-42" value="" style="ellipse;whiteSpace=wrap;html=1;aspect=fixed;" vertex="1" parent="1">
          <mxGeometry x="400" y="160" width="40" height="40" as="geometry" />
        </mxCell>
        <mxCell id="2z21b3cvbouEXiCNSWIQ-43" value="" style="ellipse;whiteSpace=wrap;html=1;aspect=fixed;" vertex="1" parent="1">
          <mxGeometry x="400" y="520" width="40" height="40" as="geometry" />
        </mxCell>
        <mxCell id="2z21b3cvbouEXiCNSWIQ-44" value="0" style="text;html=1;strokeColor=none;fillColor=none;align=center;verticalAlign=middle;whiteSpace=wrap;rounded=0;fontSize=18;" vertex="1" parent="1">
          <mxGeometry x="120" y="270" width="20" height="30" as="geometry" />
        </mxCell>
        <mxCell id="2z21b3cvbouEXiCNSWIQ-45" value="0" style="text;html=1;strokeColor=none;fillColor=none;align=center;verticalAlign=middle;whiteSpace=wrap;rounded=0;fontSize=18;" vertex="1" parent="1">
          <mxGeometry x="400" y="270" width="20" height="30" as="geometry" />
        </mxCell>
        <mxCell id="2z21b3cvbouEXiCNSWIQ-46" value="0" style="text;html=1;strokeColor=none;fillColor=none;align=center;verticalAlign=middle;whiteSpace=wrap;rounded=0;fontSize=18;" vertex="1" parent="1">
          <mxGeometry x="270" y="70" width="20" height="30" as="geometry" />
        </mxCell>
        <mxCell id="2z21b3cvbouEXiCNSWIQ-47" value="0" style="text;html=1;strokeColor=none;fillColor=none;align=center;verticalAlign=middle;whiteSpace=wrap;rounded=0;fontSize=18;" vertex="1" parent="1">
          <mxGeometry x="270" y="590" width="20" height="30" as="geometry" />
        </mxCell>
        <mxCell id="2z21b3cvbouEXiCNSWIQ-48" value="" style="endArrow=none;html=1;rounded=0;fontSize=24;exitX=1;exitY=1;exitDx=0;exitDy=0;entryX=0;entryY=0;entryDx=0;entryDy=0;strokeWidth=5;strokeColor=#FF6666;" edge="1" parent="1" source="2z21b3cvbouEXiCNSWIQ-1" target="2z21b3cvbouEXiCNSWIQ-15">
          <mxGeometry width="50" height="50" relative="1" as="geometry">
            <mxPoint x="130" y="650" as="sourcePoint" />
            <mxPoint x="180" y="600" as="targetPoint" />
          </mxGeometry>
        </mxCell>
        <mxCell id="2z21b3cvbouEXiCNSWIQ-49" value="0" style="text;html=1;strokeColor=none;fillColor=none;align=center;verticalAlign=middle;whiteSpace=wrap;rounded=0;fontSize=18;" vertex="1" parent="1">
          <mxGeometry x="170" y="150" width="20" height="30" as="geometry" />
        </mxCell>
        <mxCell id="2z21b3cvbouEXiCNSWIQ-50" value="0" style="text;html=1;strokeColor=none;fillColor=none;align=center;verticalAlign=middle;whiteSpace=wrap;rounded=0;fontSize=18;" vertex="1" parent="1">
          <mxGeometry x="370" y="150" width="20" height="30" as="geometry" />
        </mxCell>
        <mxCell id="2z21b3cvbouEXiCNSWIQ-51" value="0" style="text;html=1;strokeColor=none;fillColor=none;align=center;verticalAlign=middle;whiteSpace=wrap;rounded=0;fontSize=18;" vertex="1" parent="1">
          <mxGeometry x="170" y="510" width="20" height="30" as="geometry" />
        </mxCell>
        <mxCell id="2z21b3cvbouEXiCNSWIQ-52" value="0" style="text;html=1;strokeColor=none;fillColor=none;align=center;verticalAlign=middle;whiteSpace=wrap;rounded=0;fontSize=18;" vertex="1" parent="1">
          <mxGeometry x="370" y="510" width="20" height="30" as="geometry" />
        </mxCell>
        <mxCell id="2z21b3cvbouEXiCNSWIQ-53" value="" style="endArrow=none;html=1;rounded=0;fontSize=24;entryX=0;entryY=1;entryDx=0;entryDy=0;exitX=1;exitY=0;exitDx=0;exitDy=0;" edge="1" parent="1" source="2z21b3cvbouEXiCNSWIQ-35" target="2z21b3cvbouEXiCNSWIQ-43">
          <mxGeometry width="50" height="50" relative="1" as="geometry">
            <mxPoint x="350" y="610" as="sourcePoint" />
            <mxPoint x="400" y="560" as="targetPoint" />
          </mxGeometry>
        </mxCell>
        <mxCell id="2z21b3cvbouEXiCNSWIQ-54" value="" style="endArrow=none;html=1;rounded=0;fontSize=24;entryX=0;entryY=1;entryDx=0;entryDy=0;exitX=1;exitY=0;exitDx=0;exitDy=0;" edge="1" parent="1" source="2z21b3cvbouEXiCNSWIQ-34" target="2z21b3cvbouEXiCNSWIQ-38">
          <mxGeometry width="50" height="50" relative="1" as="geometry">
            <mxPoint x="148.28213562373105" y="161.71786437626895" as="sourcePoint" />
            <mxPoint x="199.99786437626892" y="110.00213562373108" as="targetPoint" />
          </mxGeometry>
        </mxCell>
        <mxCell id="2z21b3cvbouEXiCNSWIQ-55" value="" style="endArrow=none;html=1;rounded=0;fontSize=24;entryX=0;entryY=0;entryDx=0;entryDy=0;exitX=1;exitY=1;exitDx=0;exitDy=0;" edge="1" parent="1" source="2z21b3cvbouEXiCNSWIQ-40" target="2z21b3cvbouEXiCNSWIQ-42">
          <mxGeometry width="50" height="50" relative="1" as="geometry">
            <mxPoint x="350" y="110" as="sourcePoint" />
            <mxPoint x="400" y="60" as="targetPoint" />
          </mxGeometry>
        </mxCell>
        <mxCell id="2z21b3cvbouEXiCNSWIQ-56" value="0" style="text;html=1;strokeColor=none;fillColor=none;align=center;verticalAlign=middle;whiteSpace=wrap;rounded=0;fontSize=18;" vertex="1" parent="1">
          <mxGeometry x="160" y="110" width="20" height="30" as="geometry" />
        </mxCell>
        <mxCell id="2z21b3cvbouEXiCNSWIQ-57" value="0" style="text;html=1;strokeColor=none;fillColor=none;align=center;verticalAlign=middle;whiteSpace=wrap;rounded=0;fontSize=18;" vertex="1" parent="1">
          <mxGeometry x="380" y="110" width="20" height="30" as="geometry" />
        </mxCell>
        <mxCell id="2z21b3cvbouEXiCNSWIQ-58" value="0" style="text;html=1;strokeColor=none;fillColor=none;align=center;verticalAlign=middle;whiteSpace=wrap;rounded=0;fontSize=18;" vertex="1" parent="1">
          <mxGeometry x="160" y="580" width="20" height="30" as="geometry" />
        </mxCell>
        <mxCell id="2z21b3cvbouEXiCNSWIQ-59" value="0" style="text;html=1;strokeColor=none;fillColor=none;align=center;verticalAlign=middle;whiteSpace=wrap;rounded=0;fontSize=18;" vertex="1" parent="1">
          <mxGeometry x="380" y="580" width="20" height="30" as="geometry" />
        </mxCell>
        <mxCell id="2z21b3cvbouEXiCNSWIQ-64" style="edgeStyle=orthogonalEdgeStyle;rounded=0;orthogonalLoop=1;jettySize=auto;html=1;exitX=1;exitY=0.5;exitDx=0;exitDy=0;entryX=0;entryY=0.5;entryDx=0;entryDy=0;endArrow=none;endFill=0;strokeWidth=5;strokeColor=#FF6666;" edge="1" parent="1" source="2z21b3cvbouEXiCNSWIQ-60" target="2z21b3cvbouEXiCNSWIQ-61">
          <mxGeometry relative="1" as="geometry" />
        </mxCell>
        <mxCell id="2z21b3cvbouEXiCNSWIQ-68" style="edgeStyle=orthogonalEdgeStyle;rounded=0;orthogonalLoop=1;jettySize=auto;html=1;exitX=0.5;exitY=1;exitDx=0;exitDy=0;entryX=0.5;entryY=0;entryDx=0;entryDy=0;endArrow=none;endFill=0;strokeColor=#FF6666;strokeWidth=5;" edge="1" parent="1" source="2z21b3cvbouEXiCNSWIQ-60" target="2z21b3cvbouEXiCNSWIQ-66">
          <mxGeometry relative="1" as="geometry" />
        </mxCell>
        <mxCell id="2z21b3cvbouEXiCNSWIQ-60" value="" style="ellipse;whiteSpace=wrap;html=1;aspect=fixed;fillColor=#CCCCCC;" vertex="1" parent="1">
          <mxGeometry x="200" y="320" width="40" height="40" as="geometry" />
        </mxCell>
        <mxCell id="2z21b3cvbouEXiCNSWIQ-63" style="edgeStyle=orthogonalEdgeStyle;rounded=0;orthogonalLoop=1;jettySize=auto;html=1;exitX=0.5;exitY=0;exitDx=0;exitDy=0;entryX=0.5;entryY=1;entryDx=0;entryDy=0;endArrow=none;endFill=0;strokeColor=#FF6666;strokeWidth=5;" edge="1" parent="1" source="2z21b3cvbouEXiCNSWIQ-61" target="2z21b3cvbouEXiCNSWIQ-6">
          <mxGeometry relative="1" as="geometry" />
        </mxCell>
        <mxCell id="2z21b3cvbouEXiCNSWIQ-70" style="edgeStyle=orthogonalEdgeStyle;rounded=0;orthogonalLoop=1;jettySize=auto;html=1;exitX=0.5;exitY=1;exitDx=0;exitDy=0;entryX=0.5;entryY=0;entryDx=0;entryDy=0;endArrow=none;endFill=0;strokeColor=#000000;strokeWidth=1;" edge="1" parent="1" source="2z21b3cvbouEXiCNSWIQ-61" target="2z21b3cvbouEXiCNSWIQ-67">
          <mxGeometry relative="1" as="geometry" />
        </mxCell>
        <mxCell id="2z21b3cvbouEXiCNSWIQ-61" value="" style="ellipse;whiteSpace=wrap;html=1;aspect=fixed;fillColor=#CCCCCC;" vertex="1" parent="1">
          <mxGeometry x="320" y="320" width="40" height="40" as="geometry" />
        </mxCell>
        <mxCell id="2z21b3cvbouEXiCNSWIQ-65" value="a3" style="text;html=1;strokeColor=none;fillColor=none;align=center;verticalAlign=middle;whiteSpace=wrap;rounded=0;fontSize=18;" vertex="1" parent="1">
          <mxGeometry x="250" y="310" width="60" height="30" as="geometry" />
        </mxCell>
        <mxCell id="2z21b3cvbouEXiCNSWIQ-69" style="edgeStyle=orthogonalEdgeStyle;rounded=0;orthogonalLoop=1;jettySize=auto;html=1;exitX=1;exitY=0.5;exitDx=0;exitDy=0;entryX=0;entryY=0.5;entryDx=0;entryDy=0;endArrow=none;endFill=0;strokeColor=#FF6666;strokeWidth=5;" edge="1" parent="1" source="2z21b3cvbouEXiCNSWIQ-66" target="2z21b3cvbouEXiCNSWIQ-67">
          <mxGeometry relative="1" as="geometry" />
        </mxCell>
        <mxCell id="2z21b3cvbouEXiCNSWIQ-73" style="edgeStyle=orthogonalEdgeStyle;rounded=0;orthogonalLoop=1;jettySize=auto;html=1;exitX=0.5;exitY=1;exitDx=0;exitDy=0;entryX=0;entryY=0.5;entryDx=0;entryDy=0;endArrow=none;endFill=0;strokeColor=#000000;strokeWidth=1;" edge="1" parent="1" source="2z21b3cvbouEXiCNSWIQ-66" target="2z21b3cvbouEXiCNSWIQ-16">
          <mxGeometry relative="1" as="geometry" />
        </mxCell>
        <mxCell id="2z21b3cvbouEXiCNSWIQ-66" value="" style="ellipse;whiteSpace=wrap;html=1;aspect=fixed;fillColor=#CCCCCC;" vertex="1" parent="1">
          <mxGeometry x="200" y="400" width="40" height="40" as="geometry" />
        </mxCell>
        <mxCell id="2z21b3cvbouEXiCNSWIQ-72" style="edgeStyle=orthogonalEdgeStyle;rounded=0;orthogonalLoop=1;jettySize=auto;html=1;exitX=0.5;exitY=1;exitDx=0;exitDy=0;entryX=0;entryY=0.5;entryDx=0;entryDy=0;endArrow=none;endFill=0;strokeColor=#FF6666;strokeWidth=5;" edge="1" parent="1" source="2z21b3cvbouEXiCNSWIQ-67" target="2z21b3cvbouEXiCNSWIQ-28">
          <mxGeometry relative="1" as="geometry" />
        </mxCell>
        <mxCell id="2z21b3cvbouEXiCNSWIQ-67" value="" style="ellipse;whiteSpace=wrap;html=1;aspect=fixed;fillColor=#CCCCCC;" vertex="1" parent="1">
          <mxGeometry x="320" y="400" width="40" height="40" as="geometry" />
        </mxCell>
        <mxCell id="2z21b3cvbouEXiCNSWIQ-71" value="a4" style="text;html=1;strokeColor=none;fillColor=none;align=center;verticalAlign=middle;whiteSpace=wrap;rounded=0;fontSize=18;" vertex="1" parent="1">
          <mxGeometry x="250" y="390" width="60" height="30" as="geometry" />
        </mxCell>
        <mxCell id="2z21b3cvbouEXiCNSWIQ-74" value="0" style="text;html=1;strokeColor=none;fillColor=none;align=center;verticalAlign=middle;whiteSpace=wrap;rounded=0;fontSize=18;" vertex="1" parent="1">
          <mxGeometry x="195" y="370" width="20" height="30" as="geometry" />
        </mxCell>
        <mxCell id="2z21b3cvbouEXiCNSWIQ-75" value="0" style="text;html=1;strokeColor=none;fillColor=none;align=center;verticalAlign=middle;whiteSpace=wrap;rounded=0;fontSize=18;" vertex="1" parent="1">
          <mxGeometry x="315" y="370" width="20" height="30" as="geometry" />
        </mxCell>
        <mxCell id="2z21b3cvbouEXiCNSWIQ-76" value="0" style="text;html=1;strokeColor=none;fillColor=none;align=center;verticalAlign=middle;whiteSpace=wrap;rounded=0;fontSize=18;" vertex="1" parent="1">
          <mxGeometry x="195" y="569.5" width="20" height="30" as="geometry" />
        </mxCell>
        <mxCell id="2z21b3cvbouEXiCNSWIQ-77" value="0" style="text;html=1;strokeColor=none;fillColor=none;align=center;verticalAlign=middle;whiteSpace=wrap;rounded=0;fontSize=18;" vertex="1" parent="1">
          <mxGeometry x="315" y="570" width="20" height="30" as="geometry" />
        </mxCell>
        <mxCell id="2z21b3cvbouEXiCNSWIQ-78" value="0" style="text;html=1;strokeColor=none;fillColor=none;align=center;verticalAlign=middle;whiteSpace=wrap;rounded=0;fontSize=18;" vertex="1" parent="1">
          <mxGeometry x="195" y="130" width="20" height="30" as="geometry" />
        </mxCell>
        <mxCell id="2z21b3cvbouEXiCNSWIQ-79" value="0" style="text;html=1;strokeColor=none;fillColor=none;align=center;verticalAlign=middle;whiteSpace=wrap;rounded=0;fontSize=18;" vertex="1" parent="1">
          <mxGeometry x="315" y="130" width="20" height="30" as="geometry" />
        </mxCell>
      </root>
    </mxGraphModel>
  </diagram>
</mxfile>
